<svg xmlns="http://www.w3.org/2000/svg" width="28.18" height="28.18" viewBox="0 0 28.18 28.18"><path d="M192.129,108a2.807,2.807,0,0,0,.155.283c.051.077.129.155.18.232a2.323,2.323,0,0,0,.258.232.868.868,0,0,0,.309.155,1.275,1.275,0,0,0,.335.1,1.584,1.584,0,0,0,.335.026,1.468,1.468,0,0,0,.335-.026.922.922,0,0,0,.283-.1h.026a1.922,1.922,0,0,0,.309-.18,1.667,1.667,0,0,0,.232-.206l.026-.026a1.416,1.416,0,0,0,.18-.232.806.806,0,0,0,.129-.258c0-.026,0-.026.026-.052a1.665,1.665,0,0,0,.1-.335,2.188,2.188,0,0,0,0-.67,2.391,2.391,0,0,0-.1-.335,1.462,1.462,0,0,0-.309-.464l-.051-.052a2.253,2.253,0,0,0-.258-.206c-.1-.052-.18-.1-.283-.155a1.452,1.452,0,0,0-.309-.1,1.584,1.584,0,0,0-.335-.026,1.468,1.468,0,0,0-.335.026,1.452,1.452,0,0,0-.309.1h-.026a2.813,2.813,0,0,0-.283.155,2.25,2.25,0,0,0-.258.206,1.665,1.665,0,0,0-.206.232,2.805,2.805,0,0,0-.155.283,1.452,1.452,0,0,0-.1.309,1.585,1.585,0,0,0-.026.335,1.47,1.47,0,0,0,.026.335A2.338,2.338,0,0,0,192.129,108Z" transform="translate(-179.636 -98.8)"/><path d="M182.236,187.781h-.592V181.47a.665.665,0,0,0-.67-.67h-2.7a.665.665,0,0,0-.67.67v1.391a.665.665,0,0,0,.67.67h.541v4.276h-.541a.665.665,0,0,0-.67.67v1.391a.665.665,0,0,0,.67.67h3.967a.665.665,0,0,0,.67-.67v-1.391A.688.688,0,0,0,182.236,187.781Z" transform="translate(-166.163 -169.157)"/><path d="M14.09,0A14.09,14.09,0,1,0,28.18,14.09,14.093,14.093,0,0,0,14.09,0Zm0,26.325A12.235,12.235,0,1,1,26.325,14.09,12.246,12.246,0,0,1,14.09,26.325Z"/></svg>