<svg xmlns="http://www.w3.org/2000/svg" width="24" height="18" viewBox="0 0 24 18"><defs><style>.a{fill:#333;}</style></defs><path class="a" d="M7.091,65.46c3.294,2.79,9.074,7.7,10.772,9.228a1,1,0,0,0,1.452,0c1.7-1.532,7.48-6.44,10.774-9.23a.5.5,0,0,0,.07-.69A1.986,1.986,0,0,0,28.59,64h-20a1.985,1.985,0,0,0-1.569.771A.5.5,0,0,0,7.091,65.46Z" transform="translate(-6.59 -64)"/><path class="a" d="M23.71,126.458a.5.5,0,0,0-.533.072c-3.653,3.1-8.315,7.066-9.782,8.388a2.025,2.025,0,0,1-2.791,0c-1.563-1.409-6.8-5.859-9.781-8.387a.5.5,0,0,0-.823.381v12.574a2,2,0,0,0,2,2H22a2,2,0,0,0,2-2V126.912A.5.5,0,0,0,23.71,126.458Z" transform="translate(0 -123.486)"/></svg>