<svg xmlns="http://www.w3.org/2000/svg" width="24" height="24" viewBox="0 0 24 24"><defs><style>.a{fill:#333;}</style></defs><path class="a" d="M23.534,19.084,20.873,17.31l-2.365-1.577a1.048,1.048,0,0,0-1.407.228l-1.464,1.881a1.042,1.042,0,0,1-1.331.276,17.04,17.04,0,0,1-4.759-3.667A17.162,17.162,0,0,1,5.881,9.694a1.042,1.042,0,0,1,.276-1.331L8.039,6.9a1.048,1.048,0,0,0,.228-1.407L6.739,3.2,4.917.467A1.048,1.048,0,0,0,3.506.149L1.4,1.41A2.568,2.568,0,0,0,.238,2.919c-.575,2.1-.691,6.718,6.717,14.126s12.03,7.292,14.125,6.717A2.567,2.567,0,0,0,22.59,22.6l1.261-2.1A1.048,1.048,0,0,0,23.534,19.084Z" transform="translate(0 0)"/><path class="a" d="M282.979,62.785a8.451,8.451,0,0,1,8.441,8.441.5.5,0,0,0,.993,0,9.445,9.445,0,0,0-9.434-9.434.5.5,0,1,0,0,.993Z" transform="translate(-270.992 -59.116)"/><path class="a" d="M282.977,115.749a5.468,5.468,0,0,1,5.462,5.462.5.5,0,0,0,.993,0,6.463,6.463,0,0,0-6.455-6.455.5.5,0,0,0,0,.993Z" transform="translate(-270.083 -109.719)"/><path class="a" d="M282.979,168.716a2.486,2.486,0,0,1,2.483,2.483.5.5,0,0,0,.993,0,3.48,3.48,0,0,0-3.476-3.476.5.5,0,1,0,0,.993Z" transform="translate(-269.665 -160.113)"/></svg>