<svg xmlns="http://www.w3.org/2000/svg" width="37.803" height="33.751" viewBox="0 0 37.803 33.751"><defs><style>.a{fill:#fff;}</style></defs><path class="a" d="M36.685,42.669q-3.418-8.5-18.459-8.5H13.5v-5.4a1.343,1.343,0,0,0-2.3-.949L.4,38.619a1.325,1.325,0,0,0,0,1.9l10.8,10.8a1.35,1.35,0,0,0,2.3-.949v-5.4h4.725q2.067,0,3.7.126a26.69,26.69,0,0,1,3.249.454,12.058,12.058,0,0,1,2.806.9,9.932,9.932,0,0,1,2.226,1.466A7.35,7.35,0,0,1,31.9,50.042a11.48,11.48,0,0,1,1.023,2.921,17.969,17.969,0,0,1,.369,3.818q0,1.16-.106,2.595a4.322,4.322,0,0,1-.053.5,4.342,4.342,0,0,0-.053.559.787.787,0,0,0,.179.527.617.617,0,0,0,.5.211.721.721,0,0,0,.591-.359,2.411,2.411,0,0,0,.274-.464q.127-.274.285-.633c.106-.239.18-.407.222-.506Q37.8,53.2,37.8,49.694A19.206,19.206,0,0,0,36.685,42.669Z" transform="translate(0 -27.417)"/></svg>